<svg width="24" height="24" viewBox="0 0 24 24" fill="none" xmlns="http://www.w3.org/2000/svg">
<path fill-rule="evenodd" clip-rule="evenodd" d="M12.5 2.5C12.5 2.22386 12.2761 2 12 2C11.7239 2 11.5 2.22386 11.5 2.5V4.5C11.5 4.77614 11.7239 5 12 5C12.2761 5 12.5 4.77614 12.5 4.5V2.5ZM12 17C14.7614 17 17 14.7614 17 12C17 9.23858 14.7614 7 12 7C9.23858 7 7 9.23858 7 12C7 14.7614 9.23858 17 12 17ZM12 18C15.3137 18 18 15.3137 18 12C18 8.68629 15.3137 6 12 6C8.68629 6 6 8.68629 6 12C6 15.3137 8.68629 18 12 18ZM12 19C12.2761 19 12.5 19.2239 12.5 19.5V21.5C12.5 21.7761 12.2761 22 12 22C11.7239 22 11.5 21.7761 11.5 21.5V19.5C11.5 19.2239 11.7239 19 12 19ZM2 12C2 11.7239 2.22386 11.5 2.5 11.5H4.5C4.77614 11.5 5 11.7239 5 12C5 12.2761 4.77614 12.5 4.5 12.5H2.5C2.22386 12.5 2 12.2761 2 12ZM19.5 11.5C19.2239 11.5 19 11.7239 19 12C19 12.2761 19.2239 12.5 19.5 12.5H21.5C21.7761 12.5 22 12.2761 22 12C22 11.7239 21.7761 11.5 21.5 11.5H19.5ZM4.94645 19.0464C4.75118 18.8512 4.75118 18.5346 4.94645 18.3393L6.36066 16.9251C6.55592 16.7299 6.8725 16.7299 7.06777 16.9251C7.26303 17.1204 7.26303 17.437 7.06777 17.6322L5.65355 19.0464C5.45829 19.2417 5.14171 19.2417 4.94645 19.0464ZM17.6607 16.9464C17.4654 16.7512 17.1488 16.7512 16.9536 16.9464C16.7583 17.1417 16.7583 17.4583 16.9536 17.6536L18.3678 19.0678C18.563 19.263 18.8796 19.263 19.0749 19.0678C19.2701 18.8725 19.2701 18.5559 19.0749 18.3607L17.6607 16.9464ZM4.95355 4.94645C5.14881 4.75119 5.4654 4.75119 5.66066 4.94645L7.07487 6.36066C7.27013 6.55593 7.27013 6.87251 7.07487 7.06777C6.87961 7.26303 6.56303 7.26303 6.36777 7.06777L4.95355 5.65356C4.75829 5.45829 4.75829 5.14171 4.95355 4.94645ZM16.9464 6.33933C16.7512 6.5346 16.7512 6.85118 16.9464 7.04644C17.1417 7.2417 17.4583 7.2417 17.6536 7.04644L19.0678 5.63223C19.263 5.43696 19.263 5.12038 19.0678 4.92512C18.8725 4.72986 18.5559 4.72986 18.3607 4.92512L16.9464 6.33933Z" fill="black"/>
</svg>
