<svg width="24" height="24" viewBox="0 0 24 24" fill="none" xmlns="http://www.w3.org/2000/svg">
<path fill-rule="evenodd" clip-rule="evenodd" d="M12.2847 5.72566C9.91994 7.31903 8.96058 10.4236 10.1503 13.1251C11.3281 15.7992 14.2188 17.1865 16.9659 16.5654C16.1937 17.3606 15.2045 17.9645 14.0564 18.275C10.6524 19.1957 7.14656 17.1826 6.22585 13.7786C5.30514 10.3746 7.31826 6.86867 10.7223 5.94796C11.2444 5.80673 11.7684 5.73454 12.2847 5.72566ZM13.5086 5.8475C13.8469 5.69853 13.8608 5.16954 13.4957 5.11163C12.5389 4.95983 11.5353 5.00291 10.5395 5.27224C6.7623 6.29389 4.52848 10.1841 5.55013 13.9613C6.57178 17.7385 10.462 19.9723 14.2392 18.9507C15.9638 18.4842 17.3667 17.4198 18.2848 16.0411C18.478 15.7509 18.1054 15.4201 17.7864 15.5606C15.1042 16.7419 11.9722 15.5251 10.791 12.8429C9.60969 10.1607 10.8264 7.02877 13.5086 5.8475Z" fill="black"/>
</svg>
