<svg width="24" height="24" viewBox="0 0 24 24" fill="none" xmlns="http://www.w3.org/2000/svg">
<path fill-rule="evenodd" clip-rule="evenodd" d="M22 14.4375C22 13.2912 21.5663 12.2505 20.864 11.4295C20.8713 11.308 20.875 11.1856 20.875 11.0625C20.875 7.71427 18.1607 5 14.8125 5C13.2539 5 11.8321 5.58904 10.7588 6.55454C10.102 6.27786 9.38056 6.125 8.625 6.125C5.64978 6.125 3.22632 8.48739 3.1281 11.4387C2.43035 12.2583 2 13.2958 2 14.4375C2 15.1412 2.16498 15.7774 2.50481 16.323C2.84294 16.8659 3.318 17.2612 3.84998 17.5429C4.88239 18.0897 6.20572 18.25 7.5 18.25C7.72098 18.25 7.94026 18.2453 8.15672 18.2351C8.87547 18.2636 9.66387 18.2455 10.4376 18.2278L10.4579 18.2273C10.9752 18.2154 11.4901 18.2037 12 18.2037C12.5099 18.2037 13.0248 18.2154 13.5421 18.2273L13.5624 18.2278C14.3361 18.2455 15.1245 18.2636 15.8433 18.2351C16.0597 18.2453 16.279 18.25 16.5 18.25C17.7943 18.25 19.1176 18.0897 20.15 17.5429C20.682 17.2612 21.1571 16.8659 21.4952 16.323C21.835 15.7774 22 15.1412 22 14.4375ZM8.625 7.125C9.4801 7.125 10.2795 7.36351 10.9603 7.77762C11.8888 6.68975 13.2701 6 14.8125 6C17.6084 6 19.875 8.26656 19.875 11.0625C19.875 11.3072 19.8576 11.5479 19.8241 11.7834C20.5545 12.4834 21 13.4149 21 14.4375C21 16.6121 18.9853 17.25 16.5 17.25C16.2783 17.25 16.0603 17.2449 15.8471 17.2341C15.1488 17.2639 14.3703 17.246 13.565 17.2276L13.565 17.2276C13.0496 17.2158 12.5233 17.2037 12 17.2037C11.4767 17.2037 10.9504 17.2158 10.435 17.2276L10.435 17.2276C9.6297 17.246 8.85119 17.2639 8.15289 17.2341C7.93974 17.2449 7.72174 17.25 7.5 17.25C5.01472 17.25 3 16.6121 3 14.4375C3 13.4368 3.42667 12.5232 4.12952 11.8285C4.12652 11.7611 4.125 11.6932 4.125 11.625C4.125 9.13972 6.13972 7.125 8.625 7.125Z" fill="black"/>
</svg>
