<svg width="24" height="24" viewBox="0 0 24 24" fill="none" xmlns="http://www.w3.org/2000/svg">
<path fill-rule="evenodd" clip-rule="evenodd" d="M19.2859 4.00773C19.2567 4.00601 19.2274 4.00457 19.1981 4.00342C18.7529 3.98598 18.2975 4.03485 17.8447 4.15732C15.7843 4.71462 14.4465 6.61487 14.519 8.66008C14.2882 8.62784 14.0523 8.61118 13.8125 8.61118C12.2701 8.61118 10.8888 9.30093 9.96029 10.3888C9.2795 9.97468 8.4801 9.73618 7.625 9.73618C5.13972 9.73618 3.125 11.7509 3.125 14.2362C3.125 14.3044 3.12652 14.3722 3.12952 14.4397C2.42667 15.1344 2 16.0479 2 17.0487C2 19.2233 4.01472 19.8612 6.5 19.8612C6.72174 19.8612 6.93974 19.8561 7.15289 19.8453C7.85119 19.875 8.6297 19.8572 9.43496 19.8387L9.43504 19.8387C9.9504 19.8269 10.4767 19.8149 11 19.8149C11.5233 19.8149 12.0496 19.8269 12.565 19.8387L12.565 19.8387C13.3703 19.8572 14.1488 19.875 14.8471 19.8453C15.0603 19.8561 15.2783 19.8612 15.5 19.8612C17.9853 19.8612 20 19.2233 20 17.0487C20 16.0261 19.5545 15.0946 18.8241 14.3946C18.8576 14.1591 18.875 13.9184 18.875 13.6737C18.875 13.4468 18.8601 13.2235 18.8312 13.0046C19.2801 13.0233 19.7394 12.9747 20.1962 12.8511C21.0922 12.6088 21.8515 12.1125 22.4177 11.4608C22.4432 11.4314 22.4683 11.4017 22.4931 11.3717C22.5494 11.3034 22.6037 11.2334 22.6558 11.162C22.6942 11.1094 22.7315 11.056 22.7675 11.0018C22.8903 10.8174 22.6535 10.6072 22.4507 10.6965C22.422 10.7091 22.3931 10.7214 22.3642 10.7332C22.2786 10.7681 22.1925 10.7992 22.1059 10.8267C22.074 10.8368 22.042 10.8463 22.0101 10.8554C20.416 11.3088 18.6914 10.5288 18.0046 8.96915C17.3108 7.39399 17.9183 5.57479 19.3594 4.71503C19.3821 4.70153 19.4049 4.68827 19.4279 4.67525C19.4978 4.63577 19.5695 4.59851 19.643 4.5636C19.6723 4.54968 19.702 4.53612 19.7319 4.52295C19.9469 4.42827 19.9557 4.09205 19.7237 4.05524C19.654 4.04418 19.5839 4.03475 19.5134 4.02697C19.438 4.01865 19.3621 4.01222 19.2859 4.00773ZM18.6846 12.2935C19.1191 12.3321 19.5678 12.296 20.0134 12.1754C20.4136 12.0672 20.7813 11.8992 21.1097 11.6836C19.5383 11.6898 18.0377 10.7812 17.3639 9.25128C16.6822 7.70337 17.0411 5.96028 18.1363 4.80529C18.1 4.81398 18.0638 4.82323 18.0275 4.83304C16.2283 5.31968 15.0815 7.01878 15.2292 8.81206C16.8982 9.29759 18.2112 10.6193 18.6846 12.2935ZM17.8341 14.2534L17.7616 14.7615L18.1322 15.1165C18.6887 15.6499 19 16.3289 19 17.0487C19 17.4323 18.9131 17.6913 18.7975 17.8769C18.6803 18.0652 18.4963 18.2372 18.2139 18.3867C17.6177 18.7025 16.691 18.8612 15.5 18.8612C15.2934 18.8612 15.0924 18.8564 14.8977 18.8466L14.8511 18.8442L14.8046 18.8462C14.1453 18.8743 13.4016 18.8577 12.588 18.839L12.5824 18.8389C12.0706 18.8271 11.5347 18.8149 11 18.8149C10.4653 18.8149 9.9294 18.8271 9.41758 18.8389L9.41204 18.839C8.59842 18.8577 7.85466 18.8743 7.19544 18.8462L7.14887 18.8442L7.10232 18.8466C6.90763 18.8564 6.70658 18.8612 6.5 18.8612C5.309 18.8612 4.38233 18.7025 3.78606 18.3867C3.5037 18.2372 3.31975 18.0652 3.20246 17.8769C3.08685 17.6913 3 17.4323 3 17.0487C3 16.3439 3.29825 15.679 3.83248 15.151L4.14828 14.8388L4.12853 14.3952C4.12619 14.3426 4.125 14.2896 4.125 14.2362C4.125 12.3032 5.692 10.7362 7.625 10.7362C8.29167 10.7362 8.91198 10.9216 9.4406 11.2432L10.1681 11.6857L10.7209 11.038C11.4676 10.1632 12.575 9.61118 13.8125 9.61118C16.0562 9.61118 17.875 11.43 17.875 13.6737C17.875 13.871 17.861 14.0646 17.8341 14.2534Z" fill="black"/>
</svg>
