<svg width="24" height="24" viewBox="0 0 24 24" fill="none" xmlns="http://www.w3.org/2000/svg">
<path fill-rule="evenodd" clip-rule="evenodd" d="M10.3335 2C10.6096 2 10.8335 2.22386 10.8335 2.5V3.54187C10.8335 3.81801 10.6096 4.04187 10.3335 4.04187C10.0573 4.04187 9.83349 3.81801 9.83349 3.54187V2.5C9.83349 2.22386 10.0573 2 10.3335 2ZM10.3335 4.32328C11.8446 4.32328 13.1052 5.39554 13.396 6.82068C13.759 6.74767 14.1348 6.70936 14.5193 6.70936C17.5258 6.70936 20.0276 9.06638 20.0276 12.052C20.0276 12.1379 20.0255 12.2234 20.0213 12.3084C20.6413 13.027 21.0294 13.9376 21.0294 14.9471C21.0294 15.5806 20.8746 16.1584 20.5542 16.654C20.2367 17.145 19.7948 17.4964 19.3101 17.7436C18.3715 18.2225 17.1774 18.3596 16.022 18.3596C15.8253 18.3596 15.6299 18.3556 15.437 18.3469C14.7954 18.3713 14.0927 18.3557 13.4058 18.3406H13.4057L13.3863 18.3401C12.9255 18.33 12.4678 18.3199 12.0147 18.3199C11.5616 18.3199 11.1039 18.33 10.6431 18.3401L10.6237 18.3406L10.6236 18.3406H10.6235H10.6235C9.93667 18.3557 9.23398 18.3713 8.59253 18.3469C8.39952 18.3556 8.20413 18.3596 8.00735 18.3596C6.852 18.3596 5.65787 18.2225 4.71928 17.7436C4.23461 17.4964 3.79269 17.145 3.47517 16.654C3.15476 16.1584 3 15.5806 3 14.9471C3 13.9385 3.38757 13.028 4.00706 12.3096C4.10039 10.3036 5.43593 8.64424 7.25329 7.98275C7.22343 7.80927 7.20788 7.6309 7.20788 7.44889C7.20788 5.72266 8.60726 4.32328 10.3335 4.32328ZM10.3335 5.32328C11.3909 5.32328 12.268 6.0954 12.4317 7.1066C11.8661 7.33141 11.3469 7.64501 10.893 8.03026C10.3101 7.80045 9.67363 7.67439 9.00919 7.67439C8.74355 7.67439 8.48219 7.69466 8.2268 7.73377C8.21432 7.64059 8.20788 7.54549 8.20788 7.44889C8.20788 6.27495 9.15955 5.32328 10.3335 5.32328ZM5.3846 6.94889C5.10846 6.94889 4.8846 7.17275 4.8846 7.44889C4.8846 7.72503 5.10846 7.94889 5.3846 7.94889H6.42647C6.70261 7.94889 6.92647 7.72503 6.92647 7.44889C6.92647 7.17275 6.70261 6.94889 6.42647 6.94889H5.3846ZM7.53922 3.60507C7.34396 3.40981 7.02738 3.40981 6.83212 3.60507C6.63686 3.80033 6.63686 4.11691 6.83212 4.31218L7.23008 4.71014C7.42534 4.9054 7.74193 4.9054 7.93719 4.71014C8.13245 4.51488 8.13245 4.1983 7.93719 4.00303L7.53922 3.60507ZM12.7409 4.69903C12.5456 4.50377 12.5456 4.18718 12.7409 3.99192L13.1389 3.59396C13.3341 3.39869 13.6507 3.39869 13.846 3.59396C14.0412 3.78922 14.0412 4.1058 13.846 4.30106L13.448 4.69903C13.2527 4.89429 12.9362 4.89429 12.7409 4.69903ZM9.00919 8.67439C9.77067 8.67439 10.4826 8.87898 11.0888 9.23421C11.9157 8.30103 13.1458 7.70936 14.5193 7.70936C17.0091 7.70936 19.0276 9.65362 19.0276 12.052C19.0276 12.2619 19.0121 12.4684 18.9822 12.6703C19.6327 13.2708 20.0294 14.0699 20.0294 14.9471C20.0294 16.8125 18.2352 17.3596 16.022 17.3596C15.8246 17.3596 15.6305 17.3553 15.4406 17.346C14.8188 17.3715 14.1255 17.3562 13.4084 17.3404H13.4084H13.4084H13.4083H13.4083C12.9494 17.3303 12.4807 17.3199 12.0147 17.3199C11.5487 17.3199 11.08 17.3303 10.621 17.3404H10.621L10.4868 17.3433C9.81755 17.358 9.17181 17.3699 8.58885 17.346C8.399 17.3553 8.20485 17.3596 8.00735 17.3596C5.79415 17.3596 4 16.8125 4 14.9471C4 14.0886 4.37996 13.305 5.00586 12.7091C5.00319 12.6512 5.00184 12.593 5.00184 12.5345C5.00184 10.4026 6.79599 8.67439 9.00919 8.67439ZM9.87383 21.4525C9.73715 21.5892 9.73715 21.8108 9.87383 21.9475C10.0105 22.0842 10.2321 22.0842 10.3688 21.9475L12.4901 19.8262C12.6268 19.6895 12.6268 19.4679 12.4901 19.3312C12.3534 19.1945 12.1318 19.1945 11.9952 19.3312L9.87383 21.4525ZM6.75251 21.7525C6.61583 21.8892 6.61583 22.1108 6.75251 22.2475C6.8892 22.3842 7.11081 22.3842 7.24749 22.2475L9.36881 20.1262C9.50549 19.9895 9.50549 19.7679 9.36881 19.6312C9.23213 19.4945 9.01052 19.4945 8.87383 19.6312L6.75251 21.7525ZM12.9952 22.2475C12.8585 22.1108 12.8585 21.8892 12.9952 21.7525L15.1165 19.6312C15.2532 19.4945 15.4748 19.4945 15.6115 19.6312C15.7481 19.7679 15.7481 19.9895 15.6115 20.1262L13.4901 22.2475C13.3534 22.3842 13.1318 22.3842 12.9952 22.2475Z" fill="black"/>
</svg>
