<svg width="24" height="24" viewBox="0 0 24 24" fill="none" xmlns="http://www.w3.org/2000/svg">
<path fill-rule="evenodd" clip-rule="evenodd" d="M20.1981 2.00342C20.2274 2.00457 20.2567 2.00601 20.2859 2.00773C20.3621 2.01222 20.438 2.01865 20.5134 2.02697C20.5839 2.03475 20.654 2.04418 20.7237 2.05524C20.9557 2.09205 20.9469 2.42827 20.7319 2.52295C20.702 2.53612 20.6723 2.54968 20.643 2.5636C20.5695 2.59851 20.4978 2.63577 20.4279 2.67525C20.4049 2.68827 20.3821 2.70153 20.3594 2.71503C18.9183 3.57479 18.3108 5.39399 19.0046 6.96915C19.6914 8.52877 21.416 9.30883 23.0101 8.85545C23.042 8.84635 23.074 8.83675 23.1059 8.82666C23.1925 8.79922 23.2786 8.76809 23.3642 8.73319C23.3931 8.72138 23.422 8.70914 23.4507 8.69646C23.6535 8.60717 23.8903 8.81743 23.7675 9.00183C23.7315 9.05601 23.6942 9.10943 23.6558 9.16204C23.6037 9.23345 23.5494 9.30337 23.4931 9.3717C23.4683 9.4017 23.4432 9.43139 23.4177 9.46076C22.8515 10.1125 22.0922 10.6088 21.1962 10.8511C20.7409 10.9743 20.283 11.023 19.8355 11.0048C19.8556 11.1953 19.866 11.3888 19.866 11.5849C19.866 11.6822 19.8634 11.779 19.8583 11.8752C20.5137 12.6275 20.9237 13.5827 20.9237 14.6415C20.9237 15.301 20.7627 15.9003 20.431 16.4133C20.1021 16.9219 19.6438 17.2868 19.1389 17.5444C18.1599 18.0439 16.9099 18.1887 15.6928 18.1887C15.485 18.1887 15.2788 18.1844 15.0752 18.1752C14.399 18.201 13.6576 18.1846 12.9308 18.1686H12.9308L12.9112 18.1681C12.4248 18.1574 11.941 18.1467 11.4619 18.1467C10.9827 18.1467 10.4989 18.1574 10.0125 18.1681L9.9929 18.1686C9.26617 18.1846 8.52475 18.201 7.84856 18.1752C7.64493 18.1844 7.43871 18.1887 7.23093 18.1887C6.01384 18.1887 4.76381 18.0439 3.78477 17.5444C3.27987 17.2868 2.82157 16.9219 2.49274 16.4134C2.16101 15.9003 2 15.3011 2 14.6415C2 13.5847 2.40865 12.6305 3.06233 11.8787C3.17914 9.14378 5.50798 7.01888 8.28866 7.01888C8.99489 7.01888 9.67072 7.15514 10.2882 7.40308C11.3072 6.52789 12.6463 6 14.1062 6C14.5957 6 15.0724 6.05972 15.5284 6.17234C15.6653 4.31925 16.9492 2.67001 18.8447 2.15732C19.2975 2.03485 19.7529 1.98598 20.1981 2.00342ZM21.0134 10.1754C20.5773 10.2934 20.1384 10.3305 19.7126 10.2959C19.2758 8.4965 17.9444 7.04922 16.2181 6.38856C16.2671 4.7574 17.3707 3.28116 19.0275 2.83304C19.0638 2.82323 19.1 2.81398 19.1363 2.80529C18.0411 3.96028 17.6822 5.70337 18.3639 7.25128C19.0377 8.78115 20.5383 9.68984 22.1097 9.68355C21.7813 9.89919 21.4136 10.0672 21.0134 10.1754ZM11.4619 17.1467C10.9698 17.1467 10.475 17.1577 9.99039 17.1684H9.99033H9.99032H9.99031H9.99029C9.23325 17.1851 8.50136 17.2012 7.84487 17.1743C7.64443 17.1841 7.43944 17.1887 7.23093 17.1887C4.89425 17.1887 3 16.611 3 14.6415C3 13.7352 3.40116 12.9078 4.06198 12.2787C4.05916 12.2176 4.05773 12.1561 4.05773 12.0943C4.05773 9.84353 5.95198 8.01888 8.28866 8.01888C9.09263 8.01888 9.84423 8.23488 10.4843 8.60993C11.3573 7.62468 12.656 7 14.1062 7C16.7349 7 18.866 9.05273 18.866 11.5849C18.866 11.8066 18.8496 12.0245 18.8181 12.2378C19.5049 12.8717 19.9237 13.7154 19.9237 14.6415C19.9237 16.611 18.0295 17.1887 15.6928 17.1887C15.4843 17.1887 15.2793 17.1841 15.0789 17.1743C14.4224 17.2012 13.6905 17.1851 12.9334 17.1684H12.9334H12.9333H12.9333L12.7512 17.1644C12.3251 17.1551 11.8924 17.1467 11.4619 17.1467ZM7.87384 21.4525C7.73715 21.5892 7.73715 21.8108 7.87384 21.9475C8.01052 22.0842 8.23213 22.0842 8.36881 21.9475L10.4901 19.8262C10.6268 19.6895 10.6268 19.4679 10.4901 19.3312C10.3534 19.1945 10.1318 19.1945 9.99516 19.3312L7.87384 21.4525ZM4.75251 21.7525C4.61583 21.8892 4.61583 22.1108 4.75251 22.2475C4.8892 22.3842 5.11081 22.3842 5.24749 22.2475L7.36881 20.1262C7.50549 19.9895 7.50549 19.7679 7.36881 19.6312C7.23213 19.4945 7.01052 19.4945 6.87383 19.6312L4.75251 21.7525ZM10.9952 22.2475C10.8585 22.1108 10.8585 21.8892 10.9952 21.7525L13.1165 19.6312C13.2532 19.4945 13.4748 19.4945 13.6115 19.6312C13.7481 19.7679 13.7481 19.9895 13.6115 20.1262L11.4901 22.2475C11.3535 22.3842 11.1318 22.3842 10.9952 22.2475Z" fill="black"/>
</svg>
