<svg width="24" height="24" viewBox="0 0 24 24" fill="none" xmlns="http://www.w3.org/2000/svg">
<path fill-rule="evenodd" clip-rule="evenodd" d="M19.8923 10.5077L19.9647 9.99964C19.9879 9.83695 20 9.67018 20 9.5C20 7.567 18.433 6 16.5 6C15.4339 6 14.4799 6.47541 13.8364 7.22932L13.2836 7.87699L12.5561 7.43446C12.1031 7.15892 11.5717 7 11 7C9.63762 7 8.48735 7.90813 8.1215 9.15208C8.78928 9.22537 9.4131 9.44477 9.96029 9.77762C10.8888 8.68975 12.2701 8 13.8125 8C16.6084 8 18.875 10.2666 18.875 13.0625C18.875 13.3072 18.8576 13.5479 18.8241 13.7834C18.881 13.8379 18.9362 13.8939 18.9896 13.9512C19.5662 13.8889 20.0274 13.7675 20.3604 13.5912C20.5975 13.4656 20.7448 13.3251 20.8368 13.1774C20.9271 13.0324 21 12.8232 21 12.5C21 11.8938 20.7382 11.3183 20.2628 10.8628L19.8923 10.5077ZM19.6285 14.8683C19.8675 15.3491 20 15.8798 20 16.4375C20 18.6121 17.9853 19.25 15.5 19.25C15.2783 19.25 15.0603 19.2449 14.8471 19.2341C14.1488 19.2639 13.3703 19.246 12.565 19.2276L12.565 19.2276C12.0496 19.2158 11.5233 19.2037 11 19.2037C10.4767 19.2037 9.9504 19.2158 9.43504 19.2276L9.43496 19.2276C8.6297 19.246 7.85119 19.2639 7.15289 19.2341C6.93974 19.2449 6.72174 19.25 6.5 19.25C4.01472 19.25 2 18.6121 2 16.4375C2 15.4368 2.42667 14.5232 3.12952 13.8285C3.12652 13.7611 3.125 13.6932 3.125 13.625C3.125 11.3211 4.85643 9.42152 7.08908 9.15658C7.47629 7.35246 9.0802 6 11 6C11.7601 6 12.4707 6.21201 13.0758 6.58011C13.9012 5.61311 15.129 5 16.5 5C18.9853 5 21 7.01472 21 9.5C21 9.71754 20.9846 9.93148 20.9547 10.1408C21.604 10.763 22 11.591 22 12.5C22 13.9256 21.026 14.6082 19.6285 14.8683ZM17.8341 13.6422L17.7616 14.1503L18.1322 14.5054C18.6887 15.0387 19 15.7177 19 16.4375C19 16.8211 18.9131 17.0801 18.7975 17.2657C18.6803 17.454 18.4963 17.626 18.2139 17.7755C17.6177 18.0913 16.691 18.25 15.5 18.25C15.2934 18.25 15.0924 18.2453 14.8977 18.2354L14.8511 18.233L14.8046 18.235C14.1453 18.2631 13.4016 18.2465 12.588 18.2278L12.5824 18.2277C12.0706 18.216 11.5347 18.2037 11 18.2037C10.4653 18.2037 9.9294 18.216 9.41758 18.2277L9.41204 18.2278C8.59842 18.2465 7.85466 18.2631 7.19544 18.235L7.14887 18.233L7.10232 18.2354C6.90763 18.2453 6.70658 18.25 6.5 18.25C5.309 18.25 4.38233 18.0913 3.78606 17.7755C3.5037 17.626 3.31975 17.454 3.20246 17.2657C3.08685 17.0801 3 16.8211 3 16.4375C3 15.7327 3.29825 15.0678 3.83248 14.5398L4.14828 14.2276L4.12853 13.7841C4.12619 13.7314 4.125 13.6784 4.125 13.625C4.125 11.692 5.692 10.125 7.625 10.125C8.29167 10.125 8.91198 10.3104 9.4406 10.632L10.1681 11.0745L10.7209 10.4268C11.4676 9.55205 12.575 9 13.8125 9C16.0562 9 17.875 10.8188 17.875 13.0625C17.875 13.2599 17.861 13.4534 17.8341 13.6422Z" fill="black"/>
</svg>
