<svg width="24" height="24" viewBox="0 0 24 24" fill="none" xmlns="http://www.w3.org/2000/svg">
<path fill-rule="evenodd" clip-rule="evenodd" d="M10.225 4.5C10.225 4.22386 10.0011 4 9.725 4C9.44886 4 9.225 4.22386 9.225 4.5V5.6C9.225 5.87614 9.44886 6.1 9.725 6.1C10.0011 6.1 10.225 5.87614 10.225 5.6V4.5ZM12.969 9.1165C12.6835 7.58464 11.3397 6.425 9.725 6.425C7.90246 6.425 6.425 7.90246 6.425 9.725C6.425 9.93668 6.44493 10.1437 6.48302 10.3443C4.58295 11.0397 3.19013 12.7795 3.10047 14.8787C2.4468 15.6305 2.03814 16.5847 2.03814 17.6415C2.03814 18.3011 2.19916 18.9003 2.53088 19.4134C2.85972 19.9219 3.31801 20.2868 3.82291 20.5444C4.80196 21.0439 6.05199 21.1887 7.26907 21.1887C7.47686 21.1887 7.68308 21.1844 7.8867 21.1752C8.56289 21.201 9.30431 21.1846 10.031 21.1686L10.0506 21.1681C10.537 21.1574 11.0209 21.1467 11.5 21.1467C11.9791 21.1467 12.463 21.1574 12.9494 21.1681L12.9689 21.1686C13.6957 21.1846 14.4372 21.201 15.1134 21.1752C15.317 21.1844 15.5232 21.1887 15.7309 21.1887C16.948 21.1887 18.198 21.0439 19.1771 20.5444C19.682 20.2868 20.1403 19.9219 20.4691 19.4133C20.8008 18.9003 20.9619 18.301 20.9619 17.6415C20.9619 16.5827 20.5519 15.6275 19.8965 14.8752C19.9015 14.779 19.9041 14.6822 19.9041 14.5849C19.9041 11.4655 17.2898 9 14.1443 9C13.742 9 13.3488 9.04009 12.969 9.1165ZM12.0021 9.39925C11.8439 8.28326 10.8847 7.425 9.725 7.425C8.45475 7.425 7.425 8.45475 7.425 9.725C7.425 9.84911 7.43483 9.97092 7.45375 10.0897C7.73819 10.0431 8.02992 10.0189 8.3268 10.0189C9.03304 10.0189 9.70887 10.1551 10.3263 10.4031C10.8179 9.9809 11.3839 9.63953 12.0021 9.39925ZM4 9.725C4 9.44886 4.22386 9.225 4.5 9.225H5.6C5.87614 9.225 6.1 9.44886 6.1 9.725C6.1 10.0011 5.87614 10.225 5.6 10.225H4.5C4.22386 10.225 4 10.0011 4 9.725ZM6.00855 5.68645C6.20381 5.49119 6.5204 5.49119 6.71566 5.68645L7.17528 6.14607C7.37054 6.34133 7.37054 6.65791 7.17528 6.85317C6.98002 7.04844 6.66343 7.04844 6.46817 6.85317L6.00855 6.39355C5.81329 6.19829 5.81329 5.88171 6.00855 5.68645ZM12.2864 6.13434C12.0912 6.3296 12.0912 6.64618 12.2864 6.84144C12.4817 7.03671 12.7983 7.03671 12.9936 6.84144L13.4532 6.38182C13.6484 6.18656 13.6484 5.86998 13.4532 5.67472C13.2579 5.47945 12.9413 5.47945 12.7461 5.67472L12.2864 6.13434ZM10.0283 20.1684L10.0285 20.1684L10.0285 20.1684C10.5131 20.1577 11.008 20.1467 11.5 20.1467C11.992 20.1467 12.4869 20.1577 12.9715 20.1684H12.9715H12.9715C13.7286 20.1851 14.4605 20.2012 15.1171 20.1743C15.3175 20.1841 15.5224 20.1887 15.7309 20.1887C18.0676 20.1887 19.9619 19.611 19.9619 17.6415C19.9619 16.7154 19.543 15.8717 18.8562 15.2378C18.8878 15.0245 18.9041 14.8066 18.9041 14.5849C18.9041 12.0527 16.7731 10 14.1443 10C12.6942 10 11.3955 10.6247 10.5225 11.6099C9.88237 11.2349 9.13077 11.0189 8.3268 11.0189C5.99013 11.0189 4.09588 12.8435 4.09588 15.0943C4.09588 15.1561 4.0973 15.2176 4.10013 15.2787C3.4393 15.9078 3.03814 16.7352 3.03814 17.6415C3.03814 19.611 4.9324 20.1887 7.26907 20.1887C7.47759 20.1887 7.68257 20.1841 7.88301 20.1743C8.53943 20.2012 9.27124 20.1851 10.0282 20.1684H10.0283Z" fill="black"/>
</svg>
