<svg width="24" height="24" viewBox="0 0 24 24" fill="none" xmlns="http://www.w3.org/2000/svg">
<path fill-rule="evenodd" clip-rule="evenodd" d="M18.8341 9.64224L18.7616 10.1503L19.1322 10.5054C19.6887 11.0387 20 11.7177 20 12.4375C20 12.8211 19.9131 13.0801 19.7975 13.2657C19.6803 13.454 19.4963 13.626 19.2139 13.7755C18.6177 14.0913 17.691 14.25 16.5 14.25C16.2934 14.25 16.0924 14.2453 15.8977 14.2354L15.8511 14.233L15.8046 14.235C15.1453 14.2631 14.4016 14.2465 13.588 14.2278L13.5824 14.2277C13.0706 14.216 12.5347 14.2037 12 14.2037C11.4653 14.2037 10.9294 14.216 10.4176 14.2277L10.412 14.2278C9.59842 14.2465 8.85466 14.2631 8.19544 14.235L8.14887 14.233L8.10232 14.2354C7.90763 14.2453 7.70658 14.25 7.5 14.25C6.309 14.25 5.38233 14.0913 4.78606 13.7755C4.5037 13.626 4.31975 13.454 4.20246 13.2657C4.08685 13.0801 4 12.8211 4 12.4375C4 11.7327 4.29825 11.0678 4.83248 10.5398L5.14828 10.2277L5.12853 9.78407C5.12619 9.73141 5.125 9.67838 5.125 9.625C5.125 7.692 6.692 6.125 8.625 6.125C9.29167 6.125 9.91198 6.31042 10.4406 6.63198L11.1681 7.0745L11.7209 6.42684C12.4676 5.55205 13.575 5 14.8125 5C17.0562 5 18.875 6.81884 18.875 9.0625C18.875 9.25987 18.861 9.45339 18.8341 9.64224ZM16.5 15.25C16.2783 15.25 16.0603 15.2449 15.8471 15.2341C15.1488 15.2639 14.3703 15.246 13.565 15.2276L13.565 15.2276C13.0496 15.2158 12.5233 15.2037 12 15.2037C11.4767 15.2037 10.9504 15.2158 10.435 15.2276L10.435 15.2276C9.6297 15.246 8.85119 15.2639 8.15289 15.2341C7.93974 15.2449 7.72174 15.25 7.5 15.25C5.01472 15.25 3 14.6121 3 12.4375C3 11.4368 3.42667 10.5232 4.12952 9.82854C4.12652 9.76107 4.125 9.69321 4.125 9.625C4.125 7.13972 6.13972 5.125 8.625 5.125C9.4801 5.125 10.2795 5.36351 10.9603 5.77762C11.8888 4.68975 13.2701 4 14.8125 4C17.6084 4 19.875 6.26656 19.875 9.0625C19.875 9.30724 19.8576 9.54792 19.8241 9.78337C20.5545 10.4834 21 11.4149 21 12.4375C21 14.6121 18.9853 15.25 16.5 15.25ZM9.87383 18.4525C9.73715 18.5892 9.73715 18.8108 9.87383 18.9475C10.0105 19.0842 10.2321 19.0842 10.3688 18.9475L12.4901 16.8262C12.6268 16.6895 12.6268 16.4679 12.4901 16.3312C12.3534 16.1945 12.1318 16.1945 11.9952 16.3312L9.87383 18.4525ZM6.75251 19.2475C6.61583 19.1108 6.61583 18.8892 6.75251 18.7525L8.87383 16.6312C9.01052 16.4945 9.23212 16.4945 9.36881 16.6312C9.50549 16.7679 9.50549 16.9895 9.36881 17.1262L7.24749 19.2475C7.1108 19.3842 6.8892 19.3842 6.75251 19.2475ZM12.9952 18.7525C12.8585 18.8892 12.8585 19.1108 12.9952 19.2475C13.1318 19.3842 13.3534 19.3842 13.4901 19.2475L15.6114 17.1262C15.7481 16.9895 15.7481 16.7679 15.6114 16.6312C15.4748 16.4945 15.2532 16.4945 15.1165 16.6312L12.9952 18.7525Z" fill="black"/>
</svg>
