<svg width="24" height="24" viewBox="0 0 24 24" fill="none" xmlns="http://www.w3.org/2000/svg">
<path fill-rule="evenodd" clip-rule="evenodd" d="M18.7616 10.1503L18.8341 9.64224C18.861 9.45339 18.875 9.25987 18.875 9.0625C18.875 6.81884 17.0562 5 14.8125 5C13.575 5 12.4676 5.55205 11.7209 6.42684L11.1681 7.0745L10.4406 6.63198C9.91198 6.31042 9.29167 6.125 8.625 6.125C6.692 6.125 5.125 7.692 5.125 9.625C5.125 9.67838 5.12619 9.73141 5.12853 9.78407L5.14828 10.2277L4.83248 10.5398C4.29825 11.0678 4 11.7327 4 12.4375C4 12.8211 4.08685 13.0801 4.20246 13.2657C4.31975 13.454 4.5037 13.626 4.78606 13.7755C5.38233 14.0913 6.309 14.25 7.5 14.25C7.70658 14.25 7.90763 14.2453 8.10232 14.2354L8.14887 14.233L8.19544 14.235C8.85466 14.2631 9.59842 14.2465 10.412 14.2278L10.4176 14.2277C10.9294 14.216 11.4653 14.2037 12 14.2037C12.5347 14.2037 13.0706 14.216 13.5824 14.2277L13.588 14.2278C14.4016 14.2465 15.1453 14.2631 15.8046 14.235L15.8511 14.233L15.8977 14.2354C16.0924 14.2453 16.2934 14.25 16.5 14.25C17.691 14.25 18.6177 14.0913 19.2139 13.7755C19.4963 13.626 19.6803 13.454 19.7975 13.2657C19.9131 13.0801 20 12.8211 20 12.4375C20 11.7177 19.6887 11.0387 19.1322 10.5054L18.7616 10.1503ZM15.8471 15.2341C16.0603 15.2449 16.2783 15.25 16.5 15.25C18.9853 15.25 21 14.6121 21 12.4375C21 11.4149 20.5545 10.4834 19.8241 9.78337C19.8576 9.54792 19.875 9.30724 19.875 9.0625C19.875 6.26656 17.6084 4 14.8125 4C13.2701 4 11.8888 4.68975 10.9603 5.77762C10.2795 5.36351 9.4801 5.125 8.625 5.125C6.13972 5.125 4.125 7.13972 4.125 9.625C4.125 9.69321 4.12652 9.76107 4.12952 9.82854C3.42667 10.5232 3 11.4368 3 12.4375C3 14.6121 5.01472 15.25 7.5 15.25C7.72174 15.25 7.93974 15.2449 8.15289 15.2341C8.85119 15.2639 9.6297 15.246 10.435 15.2276L10.435 15.2276C10.9504 15.2158 11.4767 15.2037 12 15.2037C12.5233 15.2037 13.0496 15.2158 13.565 15.2276L13.565 15.2276C14.3703 15.246 15.1488 15.2639 15.8471 15.2341ZM14.6429 16.25C14.6429 16.1119 14.5309 16 14.3929 16C14.2548 16 14.1429 16.1119 14.1429 16.25V16.7893L13.8625 16.509C13.7649 16.4114 13.6066 16.4114 13.509 16.509C13.4113 16.6066 13.4113 16.7649 13.509 16.8625L13.7893 17.1429H13.25C13.1119 17.1429 13 17.2548 13 17.3929C13 17.5309 13.1119 17.6429 13.25 17.6429H13.7893L13.509 17.9232C13.4113 18.0208 13.4113 18.1791 13.509 18.2767C13.6066 18.3744 13.7649 18.3744 13.8625 18.2767L14.1429 17.9964V18.5357C14.1429 18.6738 14.2548 18.7857 14.3929 18.7857C14.5309 18.7857 14.6429 18.6738 14.6429 18.5357V17.9964L14.9232 18.2767C15.0208 18.3744 15.1791 18.3744 15.2767 18.2767C15.3744 18.1791 15.3744 18.0208 15.2767 17.9232L14.9964 17.6429H15.5357C15.6738 17.6429 15.7857 17.5309 15.7857 17.3929C15.7857 17.2548 15.6738 17.1429 15.5357 17.1429H14.9964L15.2767 16.8625C15.3744 16.7649 15.3744 16.6066 15.2767 16.509C15.1791 16.4113 15.0208 16.4113 14.9232 16.509L14.6429 16.7893V16.25ZM8.84841 16.5C8.98649 16.5 9.09841 16.6119 9.09841 16.75V17.7449L9.66062 17.1827C9.75825 17.085 9.91654 17.085 10.0142 17.1827C10.1118 17.2803 10.1118 17.4386 10.0142 17.5362L9.45199 18.0984H10.4468C10.5849 18.0984 10.6968 18.2103 10.6968 18.3484C10.6968 18.4865 10.5849 18.5984 10.4468 18.5984H9.45196L10.0142 19.1606C10.1118 19.2583 10.1118 19.4166 10.0142 19.5142C9.91654 19.6118 9.75825 19.6118 9.66062 19.5142L9.09841 18.952V19.9468C9.09841 20.0849 8.98649 20.1968 8.84841 20.1968C8.71034 20.1968 8.59841 20.0849 8.59841 19.9468V18.952L8.03623 19.5142C7.9386 19.6118 7.78031 19.6118 7.68268 19.5142C7.58505 19.4165 7.58505 19.2583 7.68268 19.1606L8.24488 18.5984H7.25C7.11193 18.5984 7 18.4865 7 18.3484C7 18.2103 7.11193 18.0984 7.25 18.0984H8.24485L7.68268 17.5362C7.58505 17.4386 7.58505 17.2803 7.68268 17.1827C7.78031 17.0851 7.9386 17.0851 8.03623 17.1827L8.59841 17.7449V16.75C8.59841 16.6119 8.71034 16.5 8.84841 16.5Z" fill="black"/>
</svg>
