<svg width="24" height="24" viewBox="0 0 24 24" fill="none" xmlns="http://www.w3.org/2000/svg">
<path fill-rule="evenodd" clip-rule="evenodd" d="M19.9647 6.99964L19.8923 7.50768L20.2628 7.86276C20.7382 8.31832 21 8.8938 21 9.5C21 9.82324 20.9271 10.0324 20.8368 10.1774C20.7448 10.3251 20.5975 10.4656 20.3604 10.5912C20.0274 10.7675 19.5662 10.8889 18.9896 10.9512C18.9362 10.8939 18.881 10.8379 18.8241 10.7834C18.8576 10.5479 18.875 10.3072 18.875 10.0625C18.875 7.26656 16.6084 5 13.8125 5C12.2701 5 10.8888 5.68975 9.96029 6.77762C9.4131 6.44477 8.78928 6.22537 8.1215 6.15208C8.48735 4.90813 9.63762 4 11 4C11.5717 4 12.1031 4.15892 12.5561 4.43446L13.2836 4.87699L13.8364 4.22932C14.4799 3.47541 15.4339 3 16.5 3C18.433 3 20 4.567 20 6.5C20 6.67018 19.9879 6.83695 19.9647 6.99964ZM20 13.4375C20 12.8798 19.8675 12.3491 19.6285 11.8683C21.026 11.6082 22 10.9256 22 9.5C22 8.59104 21.604 7.763 20.9547 7.14077C20.9846 6.93148 21 6.71754 21 6.5C21 4.01472 18.9853 2 16.5 2C15.129 2 13.9012 2.61311 13.0758 3.58011C12.4707 3.21201 11.7601 3 11 3C9.0802 3 7.47629 4.35246 7.08908 6.15658C4.85643 6.42152 3.125 8.32106 3.125 10.625C3.125 10.6932 3.12652 10.7611 3.12952 10.8285C2.42667 11.5232 2 12.4368 2 13.4375C2 15.6121 4.01472 16.25 6.5 16.25C6.72174 16.25 6.93974 16.2449 7.15289 16.2341C7.85118 16.2639 8.62967 16.246 9.43491 16.2276H9.43496L9.43504 16.2276C9.9504 16.2158 10.4767 16.2037 11 16.2037C11.5233 16.2037 12.0496 16.2158 12.565 16.2276L12.565 16.2276H12.5651C13.3703 16.246 14.1488 16.2639 14.8471 16.2341C15.0603 16.2449 15.2783 16.25 15.5 16.25C17.9853 16.25 20 15.6121 20 13.4375ZM17.7616 11.1503L17.8341 10.6422C17.861 10.4534 17.875 10.2599 17.875 10.0625C17.875 7.81884 16.0562 6 13.8125 6C12.575 6 11.4676 6.55205 10.7209 7.42684L10.1681 8.0745L9.4406 7.63198C8.91198 7.31042 8.29167 7.125 7.625 7.125C5.692 7.125 4.125 8.692 4.125 10.625C4.125 10.6784 4.12619 10.7314 4.12853 10.7841L4.14828 11.2276L3.83248 11.5398C3.29825 12.0678 3 12.7327 3 13.4375C3 13.8211 3.08685 14.0801 3.20246 14.2657C3.31975 14.454 3.5037 14.626 3.78606 14.7755C4.38233 15.0913 5.309 15.25 6.5 15.25C6.70658 15.25 6.90763 15.2453 7.10232 15.2354L7.14887 15.233L7.19544 15.235C7.85466 15.2631 8.59842 15.2465 9.41204 15.2278L9.41758 15.2277L9.41782 15.2277C9.92957 15.216 10.4654 15.2037 11 15.2037C11.5346 15.2037 12.0704 15.216 12.5822 15.2277L12.5824 15.2277L12.588 15.2278C13.4016 15.2465 14.1453 15.2631 14.8046 15.235L14.8511 15.233L14.8977 15.2354C15.0924 15.2453 15.2934 15.25 15.5 15.25C16.691 15.25 17.6177 15.0913 18.2139 14.7755C18.4963 14.626 18.6803 14.454 18.7975 14.2657C18.9131 14.0801 19 13.8211 19 13.4375C19 12.7177 18.6887 12.0387 18.1322 11.5054L17.7616 11.1503ZM7.57143 17H8.71429L8.14286 18.4444H9L7 21L7.85714 18.8889H7.28571L7.57143 17ZM11.7143 17H10.5714L10.2857 19.3611H10.8571L10 22L12 18.8056H11.1429L11.7143 17ZM14.7143 17H13.5714L13.2857 18.8889H13.8571L13 21L15 18.4444H14.1429L14.7143 17Z" fill="black"/>
</svg>
