<svg width="24" height="24" viewBox="0 0 24 24" fill="none" xmlns="http://www.w3.org/2000/svg">
<path fill-rule="evenodd" clip-rule="evenodd" d="M14.7742 8.74728C14.6529 8.68424 14.5086 8.68424 14.3874 8.74728C14.2486 8.81944 14.1615 8.96283 14.1615 9.11923V9.25222C14.1615 9.44551 14.0048 9.60222 13.8115 9.60222C13.6182 9.60222 13.4615 9.44551 13.4615 9.25222V9.11923C13.4615 8.70169 13.694 8.31886 14.0644 8.12623C14.3881 7.95792 14.7735 7.95792 15.0971 8.12623C15.4676 8.31886 15.7 8.70169 15.7 9.11923V9.27372C15.7 9.5278 15.6252 9.77625 15.4848 9.98807C15.2736 10.3069 14.9321 10.5159 14.5521 10.5589L14.1894 10.6L14.1697 10.6022H14.15H5.35C5.1567 10.6022 5 10.4455 5 10.2522C5 10.0589 5.1567 9.90222 5.35 9.90222H14.1303L14.4733 9.86338C14.6477 9.84364 14.8044 9.74775 14.9013 9.60146C14.9657 9.50428 15 9.39029 15 9.27372V9.11923C15 8.96283 14.9129 8.81944 14.7742 8.74728ZM16.4314 15.3923C16.3826 15.3972 16.3331 15.3961 16.2848 15.3892L16.2277 15.3809C16.0386 15.3536 15.8807 15.2227 15.8189 15.0419C15.7675 14.8915 15.7893 14.7257 15.8779 14.5937L15.9483 14.4888C16.056 14.3282 16.0132 14.1108 15.8527 14.0031C15.6922 13.8954 15.4748 13.9382 15.3671 14.0987L15.2966 14.2036C15.0862 14.5172 15.0344 14.911 15.1566 15.2683C15.3034 15.6978 15.6784 16.0088 16.1276 16.0737L16.1847 16.082C16.2895 16.0971 16.396 16.0994 16.501 16.0889C17.1789 16.0211 17.7 15.4505 17.7 14.7668V14.5691C17.7 14.3349 17.6468 14.1038 17.5445 13.8931L17.5306 13.8645C17.2889 13.367 16.8185 13.0198 16.2719 12.9354L16.1958 12.9237C16.1033 12.9094 16.0099 12.9022 15.9163 12.9022H6.35C6.1567 12.9022 6 13.0589 6 13.2522C6 13.4455 6.1567 13.6022 6.35 13.6022H15.9163C15.9741 13.6022 16.0318 13.6066 16.089 13.6155L16.1651 13.6272C16.4846 13.6765 16.7597 13.8795 16.901 14.1704L16.9149 14.199C16.9709 14.3143 17 14.4409 17 14.5691V14.7668C17 15.0884 16.7539 15.3601 16.4314 15.3923ZM17.3874 10.2473C17.5086 10.1842 17.6529 10.1842 17.7742 10.2473C17.9129 10.3194 18 10.4628 18 10.6192V10.7737C18 10.8903 17.9657 11.0043 17.9013 11.1015C17.8044 11.2477 17.6477 11.3436 17.4733 11.3634L17.1303 11.4022H8.35C8.1567 11.4022 8 11.5589 8 11.7522C8 11.9455 8.1567 12.1022 8.35 12.1022H17.15H17.1697L17.1894 12.1L17.5521 12.0589C17.9321 12.0159 18.2736 11.8069 18.4848 11.4881C18.6252 11.2763 18.7 11.0278 18.7 10.7737V10.6192C18.7 10.2017 18.4676 9.81886 18.0971 9.62623C17.7735 9.45792 17.3881 9.45792 17.0644 9.62623C16.694 9.81886 16.4615 10.2017 16.4615 10.6192V10.7522C16.4615 10.9455 16.6182 11.1022 16.8115 11.1022C17.0048 11.1022 17.1615 10.9455 17.1615 10.7522V10.6192C17.1615 10.4628 17.2486 10.3194 17.3874 10.2473Z" fill="black"/>
</svg>
